<svg width="81" height="76" viewBox="0 0 81 76" fill="none" xmlns="http://www.w3.org/2000/svg">
    <circle cx="22.5" cy="29.5" r="22.5" fill="#7553FF"/>
    <path d="m44.31 56.624 14.973 9.486c1.913 1.213 4.29-.59 3.722-2.825l-4.326-17.018a2.6 2.6 0 0 1 .842-2.635l13.427-11.175c1.764-1.468.854-4.396-1.413-4.543L54 26.776a2.5 2.5 0 0 1-2.151-1.589L45.309 8.72a2.47 2.47 0 0 0-4.618 0l-6.54 16.468A2.5 2.5 0 0 1 32 26.776l-17.535 1.138c-2.267.147-3.177 3.075-1.413 4.543l13.427 11.175a2.6 2.6 0 0 1 .842 2.635L23.31 62.05c-.681 2.681 2.17 4.845 4.467 3.39l13.915-8.815a2.439 2.439 0 0 1 2.618 0v0z" stroke="#000" stroke-width="2" stroke-linecap="round" stroke-linejoin="round"/>
</svg>
