<svg width="90" height="76" viewBox="0 0 90 76" fill="none" xmlns="http://www.w3.org/2000/svg">
    <circle cx="67.5" cy="29.5" r="22.5" fill="#53C1FF"/>
    <path d="M13.398 58.193a2.38 2.38 0 0 0 2.96 1.74 81.315 81.315 0 0 1 43.269-.004 2.378 2.378 0 0 0 2.96-1.74l7.567-32.156a2.374 2.374 0 0 0-3.276-2.715L51.86 29.993a2.375 2.375 0 0 1-3.041-1.017l-8.744-15.739a2.375 2.375 0 0 0-4.152 0L27.18 28.976a2.375 2.375 0 0 1-3.04 1.017L9.12 23.317a2.374 2.374 0 0 0-3.276 2.714l7.554 32.162z" stroke="#000" stroke-width="2" stroke-linecap="round" stroke-linejoin="round"/>
    <path d="M28.5 47.998a90.793 90.793 0 0 1 19 0" stroke="#000" stroke-width="2" stroke-linecap="round" stroke-linejoin="round"/>
</svg>
